<svg xmlns="http://www.w3.org/2000/svg" viewBox="0 0 197.03 127.27"><defs><style>.cls-1</style></defs><g id="Layer_2" data-name="Layer 2"><g id="about_us" data-name="about us"><path class="cls-1" d="M121.79,66.09c-6.1,11.2-15.55,17.17-23.12,16.67C90.78,82.23,81.14,77.05,75,65.64c-4.29-8-6.84-19.09-5.81-33.79a46.52,46.52,0,0,1,2.39-11C74.78,11.62,82.07,0,98.67,0c0,0,19.16-1.29,26.53,20.47a52.67,52.67,0,0,1,2.35,10.78C129.24,45.62,126.51,57.42,121.79,66.09Z"/><path class="cls-1" d="M158,127.27H39.35s-2.77-24.15,6.91-28.94c8.35-4.14,16.8-5,25.79-12.61a46.23,46.23,0,0,0,4.35-4.16s9.67,9.28,22.12,9.28c0,0,13,.6,22.12-9.28,0,0,1.72,1.55,4.44,3.71l.44.33.14.12c1.2.92,2.56,1.94,4,3l.06,0c6.26,4.44,14.58,9.28,21,9.28C150.77,98,159.9,99.62,158,127.27Z"/><path class="cls-1" d="M147,82c-7.52-.5-16.93-6-21.77-18.51,4.32-7.93,6.82-18.72,5.27-31.85a47.43,47.43,0,0,0-2.15-9.85c3.65-5.11,9.45-9.35,18.65-9.35,0,0,21-1.43,24.28,26.26S158.24,82.76,147,82Z"/><path class="cls-1" d="M196.8,119.43H158.26c1.77-25.28-6.57-26.74-6.57-26.74-5.89,0-13.5-4.43-19.22-8.48a27.33,27.33,0,0,0,14.35,4.59s10.93.5,18.6-7.81c0,0,15.34,13.85,25.34,13.85C190.76,94.84,198.43,96.19,196.8,119.43Z"/><path class="cls-1" d="M158,127.27H91.05s-2.54-22.21,6.35-26.61l.69-.33c8.67-4.1,17.47-4.76,27-15.06l0,0,.41.36.14.12a34.92,34.92,0,0,0,4,3l.06,0c6.26,4.44,14.58,9.28,21,9.28C150.77,98,159.9,99.62,158,127.27Z"/><path class="cls-1" d="M105.83,127.27H39.35s-2.77-24.15,6.91-28.94c8.35-4.14,16.8-5,25.79-12.61,2.86,2.48,16.32,13.76,26,14.61a10.8,10.8,0,0,0,1.13,0S107.6,101.85,105.83,127.27Z"/><path class="cls-1" d="M50.07,82c7.52-.5,16.94-6,21.77-18.51C67.52,55.56,65,44.77,66.57,31.64a48.08,48.08,0,0,1,2.15-9.85c-3.65-5.11-9.45-9.35-18.65-9.35,0,0-21-1.43-24.27,26.26S38.79,82.76,50.07,82Z"/><path class="cls-1" d="M.23,119.43H38.77C37,94.15,45.34,92.69,45.34,92.69c5.89,0,13.49-4.43,19.22-8.48A27.4,27.4,0,0,1,50.2,88.8S39.28,89.3,31.6,81c0,0-15.33,13.85-25.33,13.85C6.27,94.84-1.4,96.19.23,119.43Z"/></g></g></svg>