<svg xmlns="http://www.w3.org/2000/svg" viewBox="0 0 110.93 127.55"><defs><style>.cls-1</style></defs><g id="Layer_2" data-name="Layer 2"><g id="POLICY"><path class="cls-1" d="M103.49,0H82.71V3.59a8.34,8.34,0,0,1-.85,3.66H98a7.68,7.68,0,0,1,7.44,7.88v96.58A7.68,7.68,0,0,1,98,119.59H84.58l15.31-2.82L81.2,15.39,20.44,26.59V15.13a7.68,7.68,0,0,1,7.44-7.88H43.82A8.21,8.21,0,0,1,43,3.59V0H22.4A7.67,7.67,0,0,0,15,7.88V27.6L0,30.35l15.34,83.21,3.78,2,.1.05,16.09,8.65,1.1.59,5,2.66,3.86-.71h58.26a7.67,7.67,0,0,0,7.44-7.87V7.88A7.67,7.67,0,0,0,103.49,0ZM41,123.25l-2.57-13.94-14.23,2.62-5.47,1-1.23-6.68-.1-.09L15,93v-.49L4.17,34,15,32l5.48-1,58.08-10.7.08,0,17.12,92.93h-.08l-34.78,6.41Z"/><polygon class="cls-1" points="70.17 38.56 20.44 47.72 19.94 47.81 19.77 46.9 20.44 46.77 70 37.64 70.17 38.56"/><polygon class="cls-1" points="72.9 53.4 22.68 62.65 22.51 61.74 72.73 52.49 72.9 53.4"/><polygon class="cls-1" points="75.64 68.24 25.41 77.49 25.25 76.58 75.47 67.33 75.64 68.24"/><polygon class="cls-1" points="53.26 87.71 28.15 92.34 28.01 91.61 53.13 86.98 53.26 87.71"/><path class="cls-1" d="M78.53,2.25a6.69,6.69,0,0,1-2.25,5H49.56L49.26,7a6.67,6.67,0,0,1-1.57-7H78.13A6.46,6.46,0,0,1,78.53,2.25Z"/></g></g></svg>